<mxfile host="Electron" modified="2023-11-16T10:37:26.449Z" agent="Mozilla/5.0 (Windows NT 10.0; Win64; x64) AppleWebKit/537.36 (KHTML, like Gecko) draw.io/22.0.3 Chrome/114.0.5735.289 Electron/25.8.4 Safari/537.36" etag="kNqhtdB6p0LkmFwGTGAA" version="22.0.3" type="device">
  <diagram id="R2lEEEUBdFMjLlhIrx00" name="Page-1">
    <mxGraphModel dx="1687" dy="1024" grid="1" gridSize="10" guides="1" tooltips="1" connect="1" arrows="1" fold="1" page="1" pageScale="1" pageWidth="291" pageHeight="413" math="0" shadow="1" extFonts="Permanent Marker^https://fonts.googleapis.com/css?family=Permanent+Marker">
      <root>
        <mxCell id="0" />
        <mxCell id="1" parent="0" />
        <mxCell id="B3PYywNZ0nm8Ggp-N_nq-118" value="ER Diagram" style="shape=process;whiteSpace=wrap;html=1;backgroundOutline=1;fillColor=#e1d5e7;strokeColor=#9673a6;" parent="1" vertex="1">
          <mxGeometry x="20" y="10" width="220" height="40" as="geometry" />
        </mxCell>
        <mxCell id="B3PYywNZ0nm8Ggp-N_nq-119" value="&lt;b&gt;&lt;font style=&quot;font-size: 14px;&quot;&gt;Shweta Shivamogga Dattatri, 16-11-2023&lt;/font&gt;&lt;/b&gt;" style="text;html=1;strokeColor=none;fillColor=none;align=center;verticalAlign=middle;whiteSpace=wrap;rounded=0;" parent="1" vertex="1">
          <mxGeometry x="570" y="1200" width="303" height="30" as="geometry" />
        </mxCell>
        <mxCell id="dQKUSXIgywauMoTUCJ7Y-3" value="" style="group" vertex="1" connectable="0" parent="1">
          <mxGeometry x="112" y="120" width="678" height="830" as="geometry" />
        </mxCell>
        <mxCell id="C-vyLk0tnHw3VtMMgP7b-2" value="Fleet" style="shape=table;startSize=30;container=1;collapsible=1;childLayout=tableLayout;fixedRows=1;rowLines=0;fontStyle=1;align=center;resizeLast=1;fillColor=#ffcc99;strokeColor=#36393d;" parent="dQKUSXIgywauMoTUCJ7Y-3" vertex="1">
          <mxGeometry x="417.2307692307692" width="260.7692307692308" height="404.625" as="geometry" />
        </mxCell>
        <mxCell id="C-vyLk0tnHw3VtMMgP7b-3" value="" style="shape=partialRectangle;collapsible=0;dropTarget=0;pointerEvents=0;fillColor=none;points=[[0,0.5],[1,0.5]];portConstraint=eastwest;top=0;left=0;right=0;bottom=1;" parent="C-vyLk0tnHw3VtMMgP7b-2" vertex="1">
          <mxGeometry y="30" width="260.7692307692308" height="30" as="geometry" />
        </mxCell>
        <mxCell id="C-vyLk0tnHw3VtMMgP7b-4" value="PK" style="shape=partialRectangle;overflow=hidden;connectable=0;fillColor=none;top=0;left=0;bottom=0;right=0;fontStyle=1;" parent="C-vyLk0tnHw3VtMMgP7b-3" vertex="1">
          <mxGeometry width="30" height="30" as="geometry">
            <mxRectangle width="30" height="30" as="alternateBounds" />
          </mxGeometry>
        </mxCell>
        <mxCell id="C-vyLk0tnHw3VtMMgP7b-5" value="Reg" style="shape=partialRectangle;overflow=hidden;connectable=0;fillColor=none;top=0;left=0;bottom=0;right=0;align=left;spacingLeft=6;fontStyle=5;" parent="C-vyLk0tnHw3VtMMgP7b-3" vertex="1">
          <mxGeometry x="30" width="230.76923076923077" height="30" as="geometry">
            <mxRectangle width="230.76923076923077" height="30" as="alternateBounds" />
          </mxGeometry>
        </mxCell>
        <mxCell id="C-vyLk0tnHw3VtMMgP7b-6" value="" style="shape=partialRectangle;collapsible=0;dropTarget=0;pointerEvents=0;fillColor=none;points=[[0,0.5],[1,0.5]];portConstraint=eastwest;top=0;left=0;right=0;bottom=0;" parent="C-vyLk0tnHw3VtMMgP7b-2" vertex="1">
          <mxGeometry y="60" width="260.7692307692308" height="30" as="geometry" />
        </mxCell>
        <mxCell id="C-vyLk0tnHw3VtMMgP7b-7" value="" style="shape=partialRectangle;overflow=hidden;connectable=0;fillColor=none;top=0;left=0;bottom=0;right=0;" parent="C-vyLk0tnHw3VtMMgP7b-6" vertex="1">
          <mxGeometry width="30" height="30" as="geometry">
            <mxRectangle width="30" height="30" as="alternateBounds" />
          </mxGeometry>
        </mxCell>
        <mxCell id="C-vyLk0tnHw3VtMMgP7b-8" value="IATATypeDesignator" style="shape=partialRectangle;overflow=hidden;connectable=0;fillColor=none;top=0;left=0;bottom=0;right=0;align=left;spacingLeft=6;" parent="C-vyLk0tnHw3VtMMgP7b-6" vertex="1">
          <mxGeometry x="30" width="230.76923076923077" height="30" as="geometry">
            <mxRectangle width="230.76923076923077" height="30" as="alternateBounds" />
          </mxGeometry>
        </mxCell>
        <mxCell id="C-vyLk0tnHw3VtMMgP7b-9" value="" style="shape=partialRectangle;collapsible=0;dropTarget=0;pointerEvents=0;fillColor=none;points=[[0,0.5],[1,0.5]];portConstraint=eastwest;top=0;left=0;right=0;bottom=0;" parent="C-vyLk0tnHw3VtMMgP7b-2" vertex="1">
          <mxGeometry y="90" width="260.7692307692308" height="30" as="geometry" />
        </mxCell>
        <mxCell id="C-vyLk0tnHw3VtMMgP7b-10" value="" style="shape=partialRectangle;overflow=hidden;connectable=0;fillColor=none;top=0;left=0;bottom=0;right=0;" parent="C-vyLk0tnHw3VtMMgP7b-9" vertex="1">
          <mxGeometry width="30" height="30" as="geometry">
            <mxRectangle width="30" height="30" as="alternateBounds" />
          </mxGeometry>
        </mxCell>
        <mxCell id="C-vyLk0tnHw3VtMMgP7b-11" value="TypeName" style="shape=partialRectangle;overflow=hidden;connectable=0;fillColor=none;top=0;left=0;bottom=0;right=0;align=left;spacingLeft=6;" parent="C-vyLk0tnHw3VtMMgP7b-9" vertex="1">
          <mxGeometry x="30" width="230.76923076923077" height="30" as="geometry">
            <mxRectangle width="230.76923076923077" height="30" as="alternateBounds" />
          </mxGeometry>
        </mxCell>
        <mxCell id="B3PYywNZ0nm8Ggp-N_nq-65" value="" style="shape=partialRectangle;collapsible=0;dropTarget=0;pointerEvents=0;fillColor=none;points=[[0,0.5],[1,0.5]];portConstraint=eastwest;top=0;left=0;right=0;bottom=0;" parent="C-vyLk0tnHw3VtMMgP7b-2" vertex="1">
          <mxGeometry y="120" width="260.7692307692308" height="30" as="geometry" />
        </mxCell>
        <mxCell id="B3PYywNZ0nm8Ggp-N_nq-66" value="" style="shape=partialRectangle;overflow=hidden;connectable=0;fillColor=none;top=0;left=0;bottom=0;right=0;" parent="B3PYywNZ0nm8Ggp-N_nq-65" vertex="1">
          <mxGeometry width="30" height="30" as="geometry">
            <mxRectangle width="30" height="30" as="alternateBounds" />
          </mxGeometry>
        </mxCell>
        <mxCell id="B3PYywNZ0nm8Ggp-N_nq-67" value="F" style="shape=partialRectangle;overflow=hidden;connectable=0;fillColor=none;top=0;left=0;bottom=0;right=0;align=left;spacingLeft=6;" parent="B3PYywNZ0nm8Ggp-N_nq-65" vertex="1">
          <mxGeometry x="30" width="230.76923076923077" height="30" as="geometry">
            <mxRectangle width="230.76923076923077" height="30" as="alternateBounds" />
          </mxGeometry>
        </mxCell>
        <mxCell id="B3PYywNZ0nm8Ggp-N_nq-68" value="" style="shape=partialRectangle;collapsible=0;dropTarget=0;pointerEvents=0;fillColor=none;points=[[0,0.5],[1,0.5]];portConstraint=eastwest;top=0;left=0;right=0;bottom=0;" parent="C-vyLk0tnHw3VtMMgP7b-2" vertex="1">
          <mxGeometry y="150" width="260.7692307692308" height="30" as="geometry" />
        </mxCell>
        <mxCell id="B3PYywNZ0nm8Ggp-N_nq-69" value="" style="shape=partialRectangle;overflow=hidden;connectable=0;fillColor=none;top=0;left=0;bottom=0;right=0;" parent="B3PYywNZ0nm8Ggp-N_nq-68" vertex="1">
          <mxGeometry width="30" height="30" as="geometry">
            <mxRectangle width="30" height="30" as="alternateBounds" />
          </mxGeometry>
        </mxCell>
        <mxCell id="B3PYywNZ0nm8Ggp-N_nq-70" value="C" style="shape=partialRectangle;overflow=hidden;connectable=0;fillColor=none;top=0;left=0;bottom=0;right=0;align=left;spacingLeft=6;" parent="B3PYywNZ0nm8Ggp-N_nq-68" vertex="1">
          <mxGeometry x="30" width="230.76923076923077" height="30" as="geometry">
            <mxRectangle width="230.76923076923077" height="30" as="alternateBounds" />
          </mxGeometry>
        </mxCell>
        <mxCell id="B3PYywNZ0nm8Ggp-N_nq-71" value="" style="shape=partialRectangle;collapsible=0;dropTarget=0;pointerEvents=0;fillColor=none;points=[[0,0.5],[1,0.5]];portConstraint=eastwest;top=0;left=0;right=0;bottom=0;" parent="C-vyLk0tnHw3VtMMgP7b-2" vertex="1">
          <mxGeometry y="180" width="260.7692307692308" height="30" as="geometry" />
        </mxCell>
        <mxCell id="B3PYywNZ0nm8Ggp-N_nq-72" value="" style="shape=partialRectangle;overflow=hidden;connectable=0;fillColor=none;top=0;left=0;bottom=0;right=0;" parent="B3PYywNZ0nm8Ggp-N_nq-71" vertex="1">
          <mxGeometry width="30" height="30" as="geometry">
            <mxRectangle width="30" height="30" as="alternateBounds" />
          </mxGeometry>
        </mxCell>
        <mxCell id="B3PYywNZ0nm8Ggp-N_nq-73" value="E" style="shape=partialRectangle;overflow=hidden;connectable=0;fillColor=none;top=0;left=0;bottom=0;right=0;align=left;spacingLeft=6;" parent="B3PYywNZ0nm8Ggp-N_nq-71" vertex="1">
          <mxGeometry x="30" width="230.76923076923077" height="30" as="geometry">
            <mxRectangle width="230.76923076923077" height="30" as="alternateBounds" />
          </mxGeometry>
        </mxCell>
        <mxCell id="B3PYywNZ0nm8Ggp-N_nq-74" value="" style="shape=partialRectangle;collapsible=0;dropTarget=0;pointerEvents=0;fillColor=none;points=[[0,0.5],[1,0.5]];portConstraint=eastwest;top=0;left=0;right=0;bottom=0;" parent="C-vyLk0tnHw3VtMMgP7b-2" vertex="1">
          <mxGeometry y="210" width="260.7692307692308" height="30" as="geometry" />
        </mxCell>
        <mxCell id="B3PYywNZ0nm8Ggp-N_nq-75" value="" style="shape=partialRectangle;overflow=hidden;connectable=0;fillColor=none;top=0;left=0;bottom=0;right=0;" parent="B3PYywNZ0nm8Ggp-N_nq-74" vertex="1">
          <mxGeometry width="30" height="30" as="geometry">
            <mxRectangle width="30" height="30" as="alternateBounds" />
          </mxGeometry>
        </mxCell>
        <mxCell id="B3PYywNZ0nm8Ggp-N_nq-76" value="M" style="shape=partialRectangle;overflow=hidden;connectable=0;fillColor=none;top=0;left=0;bottom=0;right=0;align=left;spacingLeft=6;" parent="B3PYywNZ0nm8Ggp-N_nq-74" vertex="1">
          <mxGeometry x="30" width="230.76923076923077" height="30" as="geometry">
            <mxRectangle width="230.76923076923077" height="30" as="alternateBounds" />
          </mxGeometry>
        </mxCell>
        <mxCell id="B3PYywNZ0nm8Ggp-N_nq-77" value="" style="shape=partialRectangle;collapsible=0;dropTarget=0;pointerEvents=0;fillColor=none;points=[[0,0.5],[1,0.5]];portConstraint=eastwest;top=0;left=0;right=0;bottom=0;" parent="C-vyLk0tnHw3VtMMgP7b-2" vertex="1">
          <mxGeometry y="240" width="260.7692307692308" height="30" as="geometry" />
        </mxCell>
        <mxCell id="B3PYywNZ0nm8Ggp-N_nq-78" value="" style="shape=partialRectangle;overflow=hidden;connectable=0;fillColor=none;top=0;left=0;bottom=0;right=0;" parent="B3PYywNZ0nm8Ggp-N_nq-77" vertex="1">
          <mxGeometry width="30" height="30" as="geometry">
            <mxRectangle width="30" height="30" as="alternateBounds" />
          </mxGeometry>
        </mxCell>
        <mxCell id="B3PYywNZ0nm8Ggp-N_nq-79" value="Total" style="shape=partialRectangle;overflow=hidden;connectable=0;fillColor=none;top=0;left=0;bottom=0;right=0;align=left;spacingLeft=6;" parent="B3PYywNZ0nm8Ggp-N_nq-77" vertex="1">
          <mxGeometry x="30" width="230.76923076923077" height="30" as="geometry">
            <mxRectangle width="230.76923076923077" height="30" as="alternateBounds" />
          </mxGeometry>
        </mxCell>
        <mxCell id="B3PYywNZ0nm8Ggp-N_nq-80" value="" style="shape=partialRectangle;collapsible=0;dropTarget=0;pointerEvents=0;fillColor=none;points=[[0,0.5],[1,0.5]];portConstraint=eastwest;top=0;left=0;right=0;bottom=0;" parent="C-vyLk0tnHw3VtMMgP7b-2" vertex="1">
          <mxGeometry y="270" width="260.7692307692308" height="30" as="geometry" />
        </mxCell>
        <mxCell id="B3PYywNZ0nm8Ggp-N_nq-81" value="" style="shape=partialRectangle;overflow=hidden;connectable=0;fillColor=none;top=0;left=0;bottom=0;right=0;" parent="B3PYywNZ0nm8Ggp-N_nq-80" vertex="1">
          <mxGeometry width="30" height="30" as="geometry">
            <mxRectangle width="30" height="30" as="alternateBounds" />
          </mxGeometry>
        </mxCell>
        <mxCell id="B3PYywNZ0nm8Ggp-N_nq-82" value="RangeLower" style="shape=partialRectangle;overflow=hidden;connectable=0;fillColor=none;top=0;left=0;bottom=0;right=0;align=left;spacingLeft=6;" parent="B3PYywNZ0nm8Ggp-N_nq-80" vertex="1">
          <mxGeometry x="30" width="230.76923076923077" height="30" as="geometry">
            <mxRectangle width="230.76923076923077" height="30" as="alternateBounds" />
          </mxGeometry>
        </mxCell>
        <mxCell id="B3PYywNZ0nm8Ggp-N_nq-83" value="" style="shape=partialRectangle;collapsible=0;dropTarget=0;pointerEvents=0;fillColor=none;points=[[0,0.5],[1,0.5]];portConstraint=eastwest;top=0;left=0;right=0;bottom=0;" parent="C-vyLk0tnHw3VtMMgP7b-2" vertex="1">
          <mxGeometry y="300" width="260.7692307692308" height="30" as="geometry" />
        </mxCell>
        <mxCell id="B3PYywNZ0nm8Ggp-N_nq-84" value="" style="shape=partialRectangle;overflow=hidden;connectable=0;fillColor=none;top=0;left=0;bottom=0;right=0;" parent="B3PYywNZ0nm8Ggp-N_nq-83" vertex="1">
          <mxGeometry width="30" height="30" as="geometry">
            <mxRectangle width="30" height="30" as="alternateBounds" />
          </mxGeometry>
        </mxCell>
        <mxCell id="B3PYywNZ0nm8Ggp-N_nq-85" value="RangeUpper" style="shape=partialRectangle;overflow=hidden;connectable=0;fillColor=none;top=0;left=0;bottom=0;right=0;align=left;spacingLeft=6;" parent="B3PYywNZ0nm8Ggp-N_nq-83" vertex="1">
          <mxGeometry x="30" width="230.76923076923077" height="30" as="geometry">
            <mxRectangle width="230.76923076923077" height="30" as="alternateBounds" />
          </mxGeometry>
        </mxCell>
        <mxCell id="B3PYywNZ0nm8Ggp-N_nq-86" value="" style="shape=partialRectangle;collapsible=0;dropTarget=0;pointerEvents=0;fillColor=none;points=[[0,0.5],[1,0.5]];portConstraint=eastwest;top=0;left=0;right=0;bottom=0;" parent="C-vyLk0tnHw3VtMMgP7b-2" vertex="1">
          <mxGeometry y="330" width="260.7692307692308" height="30" as="geometry" />
        </mxCell>
        <mxCell id="B3PYywNZ0nm8Ggp-N_nq-87" value="" style="shape=partialRectangle;overflow=hidden;connectable=0;fillColor=none;top=0;left=0;bottom=0;right=0;" parent="B3PYywNZ0nm8Ggp-N_nq-86" vertex="1">
          <mxGeometry width="30" height="30" as="geometry">
            <mxRectangle width="30" height="30" as="alternateBounds" />
          </mxGeometry>
        </mxCell>
        <mxCell id="B3PYywNZ0nm8Ggp-N_nq-88" value="Hub" style="shape=partialRectangle;overflow=hidden;connectable=0;fillColor=none;top=0;left=0;bottom=0;right=0;align=left;spacingLeft=6;" parent="B3PYywNZ0nm8Ggp-N_nq-86" vertex="1">
          <mxGeometry x="30" width="230.76923076923077" height="30" as="geometry">
            <mxRectangle width="230.76923076923077" height="30" as="alternateBounds" />
          </mxGeometry>
        </mxCell>
        <mxCell id="B3PYywNZ0nm8Ggp-N_nq-89" value="" style="shape=partialRectangle;collapsible=0;dropTarget=0;pointerEvents=0;fillColor=none;points=[[0,0.5],[1,0.5]];portConstraint=eastwest;top=0;left=0;right=0;bottom=0;" parent="C-vyLk0tnHw3VtMMgP7b-2" vertex="1">
          <mxGeometry y="360" width="260.7692307692308" height="30" as="geometry" />
        </mxCell>
        <mxCell id="B3PYywNZ0nm8Ggp-N_nq-90" value="" style="shape=partialRectangle;overflow=hidden;connectable=0;fillColor=none;top=0;left=0;bottom=0;right=0;" parent="B3PYywNZ0nm8Ggp-N_nq-89" vertex="1">
          <mxGeometry width="30" height="30" as="geometry">
            <mxRectangle width="30" height="30" as="alternateBounds" />
          </mxGeometry>
        </mxCell>
        <mxCell id="B3PYywNZ0nm8Ggp-N_nq-91" value="Haul" style="shape=partialRectangle;overflow=hidden;connectable=0;fillColor=none;top=0;left=0;bottom=0;right=0;align=left;spacingLeft=6;" parent="B3PYywNZ0nm8Ggp-N_nq-89" vertex="1">
          <mxGeometry x="30" width="230.76923076923077" height="30" as="geometry">
            <mxRectangle width="230.76923076923077" height="30" as="alternateBounds" />
          </mxGeometry>
        </mxCell>
        <mxCell id="C-vyLk0tnHw3VtMMgP7b-13" value="airports" style="shape=table;startSize=30;container=1;collapsible=1;childLayout=tableLayout;fixedRows=1;rowLines=0;fontStyle=1;align=center;resizeLast=1;fillColor=#cce5ff;strokeColor=#36393d;" parent="dQKUSXIgywauMoTUCJ7Y-3" vertex="1">
          <mxGeometry x="417.2307692307692" y="490" width="260.7692307692308" height="342.375" as="geometry" />
        </mxCell>
        <mxCell id="C-vyLk0tnHw3VtMMgP7b-14" value="" style="shape=partialRectangle;collapsible=0;dropTarget=0;pointerEvents=0;fillColor=none;points=[[0,0.5],[1,0.5]];portConstraint=eastwest;top=0;left=0;right=0;bottom=1;" parent="C-vyLk0tnHw3VtMMgP7b-13" vertex="1">
          <mxGeometry y="30" width="260.7692307692308" height="30" as="geometry" />
        </mxCell>
        <mxCell id="C-vyLk0tnHw3VtMMgP7b-15" value="PK" style="shape=partialRectangle;overflow=hidden;connectable=0;fillColor=none;top=0;left=0;bottom=0;right=0;fontStyle=1;" parent="C-vyLk0tnHw3VtMMgP7b-14" vertex="1">
          <mxGeometry width="30" height="30" as="geometry">
            <mxRectangle width="30" height="30" as="alternateBounds" />
          </mxGeometry>
        </mxCell>
        <mxCell id="C-vyLk0tnHw3VtMMgP7b-16" value="Airport" style="shape=partialRectangle;overflow=hidden;connectable=0;fillColor=none;top=0;left=0;bottom=0;right=0;align=left;spacingLeft=6;fontStyle=5;" parent="C-vyLk0tnHw3VtMMgP7b-14" vertex="1">
          <mxGeometry x="30" width="230.76923076923077" height="30" as="geometry">
            <mxRectangle width="230.76923076923077" height="30" as="alternateBounds" />
          </mxGeometry>
        </mxCell>
        <mxCell id="C-vyLk0tnHw3VtMMgP7b-17" value="" style="shape=partialRectangle;collapsible=0;dropTarget=0;pointerEvents=0;fillColor=none;points=[[0,0.5],[1,0.5]];portConstraint=eastwest;top=0;left=0;right=0;bottom=0;" parent="C-vyLk0tnHw3VtMMgP7b-13" vertex="1">
          <mxGeometry y="60" width="260.7692307692308" height="30" as="geometry" />
        </mxCell>
        <mxCell id="C-vyLk0tnHw3VtMMgP7b-18" value="" style="shape=partialRectangle;overflow=hidden;connectable=0;fillColor=none;top=0;left=0;bottom=0;right=0;" parent="C-vyLk0tnHw3VtMMgP7b-17" vertex="1">
          <mxGeometry width="30" height="30" as="geometry">
            <mxRectangle width="30" height="30" as="alternateBounds" />
          </mxGeometry>
        </mxCell>
        <mxCell id="C-vyLk0tnHw3VtMMgP7b-19" value="City" style="shape=partialRectangle;overflow=hidden;connectable=0;fillColor=none;top=0;left=0;bottom=0;right=0;align=left;spacingLeft=6;" parent="C-vyLk0tnHw3VtMMgP7b-17" vertex="1">
          <mxGeometry x="30" width="230.76923076923077" height="30" as="geometry">
            <mxRectangle width="230.76923076923077" height="30" as="alternateBounds" />
          </mxGeometry>
        </mxCell>
        <mxCell id="C-vyLk0tnHw3VtMMgP7b-20" value="" style="shape=partialRectangle;collapsible=0;dropTarget=0;pointerEvents=0;fillColor=none;points=[[0,0.5],[1,0.5]];portConstraint=eastwest;top=0;left=0;right=0;bottom=0;" parent="C-vyLk0tnHw3VtMMgP7b-13" vertex="1">
          <mxGeometry y="90" width="260.7692307692308" height="30" as="geometry" />
        </mxCell>
        <mxCell id="C-vyLk0tnHw3VtMMgP7b-21" value="" style="shape=partialRectangle;overflow=hidden;connectable=0;fillColor=none;top=0;left=0;bottom=0;right=0;" parent="C-vyLk0tnHw3VtMMgP7b-20" vertex="1">
          <mxGeometry width="30" height="30" as="geometry">
            <mxRectangle width="30" height="30" as="alternateBounds" />
          </mxGeometry>
        </mxCell>
        <mxCell id="C-vyLk0tnHw3VtMMgP7b-22" value="Country" style="shape=partialRectangle;overflow=hidden;connectable=0;fillColor=none;top=0;left=0;bottom=0;right=0;align=left;spacingLeft=6;" parent="C-vyLk0tnHw3VtMMgP7b-20" vertex="1">
          <mxGeometry x="30" width="230.76923076923077" height="30" as="geometry">
            <mxRectangle width="230.76923076923077" height="30" as="alternateBounds" />
          </mxGeometry>
        </mxCell>
        <mxCell id="B3PYywNZ0nm8Ggp-N_nq-92" value="" style="shape=partialRectangle;collapsible=0;dropTarget=0;pointerEvents=0;fillColor=none;points=[[0,0.5],[1,0.5]];portConstraint=eastwest;top=0;left=0;right=0;bottom=0;" parent="C-vyLk0tnHw3VtMMgP7b-13" vertex="1">
          <mxGeometry y="120" width="260.7692307692308" height="30" as="geometry" />
        </mxCell>
        <mxCell id="B3PYywNZ0nm8Ggp-N_nq-93" value="" style="shape=partialRectangle;overflow=hidden;connectable=0;fillColor=none;top=0;left=0;bottom=0;right=0;" parent="B3PYywNZ0nm8Ggp-N_nq-92" vertex="1">
          <mxGeometry width="30" height="30" as="geometry">
            <mxRectangle width="30" height="30" as="alternateBounds" />
          </mxGeometry>
        </mxCell>
        <mxCell id="B3PYywNZ0nm8Ggp-N_nq-94" value="Name" style="shape=partialRectangle;overflow=hidden;connectable=0;fillColor=none;top=0;left=0;bottom=0;right=0;align=left;spacingLeft=6;" parent="B3PYywNZ0nm8Ggp-N_nq-92" vertex="1">
          <mxGeometry x="30" width="230.76923076923077" height="30" as="geometry">
            <mxRectangle width="230.76923076923077" height="30" as="alternateBounds" />
          </mxGeometry>
        </mxCell>
        <mxCell id="B3PYywNZ0nm8Ggp-N_nq-95" value="" style="shape=partialRectangle;collapsible=0;dropTarget=0;pointerEvents=0;fillColor=none;points=[[0,0.5],[1,0.5]];portConstraint=eastwest;top=0;left=0;right=0;bottom=0;" parent="C-vyLk0tnHw3VtMMgP7b-13" vertex="1">
          <mxGeometry y="150" width="260.7692307692308" height="30" as="geometry" />
        </mxCell>
        <mxCell id="B3PYywNZ0nm8Ggp-N_nq-96" value="" style="shape=partialRectangle;overflow=hidden;connectable=0;fillColor=none;top=0;left=0;bottom=0;right=0;" parent="B3PYywNZ0nm8Ggp-N_nq-95" vertex="1">
          <mxGeometry width="30" height="30" as="geometry">
            <mxRectangle width="30" height="30" as="alternateBounds" />
          </mxGeometry>
        </mxCell>
        <mxCell id="B3PYywNZ0nm8Ggp-N_nq-97" value="CityName" style="shape=partialRectangle;overflow=hidden;connectable=0;fillColor=none;top=0;left=0;bottom=0;right=0;align=left;spacingLeft=6;" parent="B3PYywNZ0nm8Ggp-N_nq-95" vertex="1">
          <mxGeometry x="30" width="230.76923076923077" height="30" as="geometry">
            <mxRectangle width="230.76923076923077" height="30" as="alternateBounds" />
          </mxGeometry>
        </mxCell>
        <mxCell id="B3PYywNZ0nm8Ggp-N_nq-98" value="" style="shape=partialRectangle;collapsible=0;dropTarget=0;pointerEvents=0;fillColor=none;points=[[0,0.5],[1,0.5]];portConstraint=eastwest;top=0;left=0;right=0;bottom=0;" parent="C-vyLk0tnHw3VtMMgP7b-13" vertex="1">
          <mxGeometry y="180" width="260.7692307692308" height="30" as="geometry" />
        </mxCell>
        <mxCell id="B3PYywNZ0nm8Ggp-N_nq-99" value="" style="shape=partialRectangle;overflow=hidden;connectable=0;fillColor=none;top=0;left=0;bottom=0;right=0;" parent="B3PYywNZ0nm8Ggp-N_nq-98" vertex="1">
          <mxGeometry width="30" height="30" as="geometry">
            <mxRectangle width="30" height="30" as="alternateBounds" />
          </mxGeometry>
        </mxCell>
        <mxCell id="B3PYywNZ0nm8Ggp-N_nq-100" value="CountryName" style="shape=partialRectangle;overflow=hidden;connectable=0;fillColor=none;top=0;left=0;bottom=0;right=0;align=left;spacingLeft=6;" parent="B3PYywNZ0nm8Ggp-N_nq-98" vertex="1">
          <mxGeometry x="30" width="230.76923076923077" height="30" as="geometry">
            <mxRectangle width="230.76923076923077" height="30" as="alternateBounds" />
          </mxGeometry>
        </mxCell>
        <mxCell id="B3PYywNZ0nm8Ggp-N_nq-101" value="" style="shape=partialRectangle;collapsible=0;dropTarget=0;pointerEvents=0;fillColor=none;points=[[0,0.5],[1,0.5]];portConstraint=eastwest;top=0;left=0;right=0;bottom=0;" parent="C-vyLk0tnHw3VtMMgP7b-13" vertex="1">
          <mxGeometry y="210" width="260.7692307692308" height="30" as="geometry" />
        </mxCell>
        <mxCell id="B3PYywNZ0nm8Ggp-N_nq-102" value="" style="shape=partialRectangle;overflow=hidden;connectable=0;fillColor=none;top=0;left=0;bottom=0;right=0;" parent="B3PYywNZ0nm8Ggp-N_nq-101" vertex="1">
          <mxGeometry width="30" height="30" as="geometry">
            <mxRectangle width="30" height="30" as="alternateBounds" />
          </mxGeometry>
        </mxCell>
        <mxCell id="B3PYywNZ0nm8Ggp-N_nq-103" value="Lat" style="shape=partialRectangle;overflow=hidden;connectable=0;fillColor=none;top=0;left=0;bottom=0;right=0;align=left;spacingLeft=6;" parent="B3PYywNZ0nm8Ggp-N_nq-101" vertex="1">
          <mxGeometry x="30" width="230.76923076923077" height="30" as="geometry">
            <mxRectangle width="230.76923076923077" height="30" as="alternateBounds" />
          </mxGeometry>
        </mxCell>
        <mxCell id="B3PYywNZ0nm8Ggp-N_nq-104" value="" style="shape=partialRectangle;collapsible=0;dropTarget=0;pointerEvents=0;fillColor=none;points=[[0,0.5],[1,0.5]];portConstraint=eastwest;top=0;left=0;right=0;bottom=0;" parent="C-vyLk0tnHw3VtMMgP7b-13" vertex="1">
          <mxGeometry y="240" width="260.7692307692308" height="30" as="geometry" />
        </mxCell>
        <mxCell id="B3PYywNZ0nm8Ggp-N_nq-105" value="" style="shape=partialRectangle;overflow=hidden;connectable=0;fillColor=none;top=0;left=0;bottom=0;right=0;" parent="B3PYywNZ0nm8Ggp-N_nq-104" vertex="1">
          <mxGeometry width="30" height="30" as="geometry">
            <mxRectangle width="30" height="30" as="alternateBounds" />
          </mxGeometry>
        </mxCell>
        <mxCell id="B3PYywNZ0nm8Ggp-N_nq-106" value="Lon" style="shape=partialRectangle;overflow=hidden;connectable=0;fillColor=none;top=0;left=0;bottom=0;right=0;align=left;spacingLeft=6;" parent="B3PYywNZ0nm8Ggp-N_nq-104" vertex="1">
          <mxGeometry x="30" width="230.76923076923077" height="30" as="geometry">
            <mxRectangle width="230.76923076923077" height="30" as="alternateBounds" />
          </mxGeometry>
        </mxCell>
        <mxCell id="B3PYywNZ0nm8Ggp-N_nq-107" value="" style="shape=partialRectangle;collapsible=0;dropTarget=0;pointerEvents=0;fillColor=none;points=[[0,0.5],[1,0.5]];portConstraint=eastwest;top=0;left=0;right=0;bottom=0;" parent="C-vyLk0tnHw3VtMMgP7b-13" vertex="1">
          <mxGeometry y="270" width="260.7692307692308" height="30" as="geometry" />
        </mxCell>
        <mxCell id="B3PYywNZ0nm8Ggp-N_nq-108" value="" style="shape=partialRectangle;overflow=hidden;connectable=0;fillColor=none;top=0;left=0;bottom=0;right=0;" parent="B3PYywNZ0nm8Ggp-N_nq-107" vertex="1">
          <mxGeometry width="30" height="30" as="geometry">
            <mxRectangle width="30" height="30" as="alternateBounds" />
          </mxGeometry>
        </mxCell>
        <mxCell id="B3PYywNZ0nm8Ggp-N_nq-109" value="Alt" style="shape=partialRectangle;overflow=hidden;connectable=0;fillColor=none;top=0;left=0;bottom=0;right=0;align=left;spacingLeft=6;" parent="B3PYywNZ0nm8Ggp-N_nq-107" vertex="1">
          <mxGeometry x="30" width="230.76923076923077" height="30" as="geometry">
            <mxRectangle width="230.76923076923077" height="30" as="alternateBounds" />
          </mxGeometry>
        </mxCell>
        <mxCell id="B3PYywNZ0nm8Ggp-N_nq-110" value="" style="shape=partialRectangle;collapsible=0;dropTarget=0;pointerEvents=0;fillColor=none;points=[[0,0.5],[1,0.5]];portConstraint=eastwest;top=0;left=0;right=0;bottom=0;" parent="C-vyLk0tnHw3VtMMgP7b-13" vertex="1">
          <mxGeometry y="300" width="260.7692307692308" height="30" as="geometry" />
        </mxCell>
        <mxCell id="B3PYywNZ0nm8Ggp-N_nq-111" value="" style="shape=partialRectangle;overflow=hidden;connectable=0;fillColor=none;top=0;left=0;bottom=0;right=0;" parent="B3PYywNZ0nm8Ggp-N_nq-110" vertex="1">
          <mxGeometry width="30" height="30" as="geometry">
            <mxRectangle width="30" height="30" as="alternateBounds" />
          </mxGeometry>
        </mxCell>
        <mxCell id="B3PYywNZ0nm8Ggp-N_nq-112" value="UTCOffset" style="shape=partialRectangle;overflow=hidden;connectable=0;fillColor=none;top=0;left=0;bottom=0;right=0;align=left;spacingLeft=6;" parent="B3PYywNZ0nm8Ggp-N_nq-110" vertex="1">
          <mxGeometry x="30" width="230.76923076923077" height="30" as="geometry">
            <mxRectangle width="230.76923076923077" height="30" as="alternateBounds" />
          </mxGeometry>
        </mxCell>
        <mxCell id="C-vyLk0tnHw3VtMMgP7b-23" value="schedule" style="shape=table;startSize=30;container=1;collapsible=1;childLayout=tableLayout;fixedRows=1;rowLines=0;fontStyle=1;align=center;resizeLast=1;fillColor=#cdeb8b;strokeColor=#36393d;" parent="dQKUSXIgywauMoTUCJ7Y-3" vertex="1">
          <mxGeometry y="250" width="260.7692307692308" height="280.125" as="geometry" />
        </mxCell>
        <mxCell id="C-vyLk0tnHw3VtMMgP7b-24" value="" style="shape=partialRectangle;collapsible=0;dropTarget=0;pointerEvents=0;fillColor=none;points=[[0,0.5],[1,0.5]];portConstraint=eastwest;top=0;left=0;right=0;bottom=1;" parent="C-vyLk0tnHw3VtMMgP7b-23" vertex="1">
          <mxGeometry y="30" width="260.7692307692308" height="30" as="geometry" />
        </mxCell>
        <mxCell id="C-vyLk0tnHw3VtMMgP7b-25" value="PK" style="shape=partialRectangle;overflow=hidden;connectable=0;fillColor=none;top=0;left=0;bottom=0;right=0;fontStyle=1;" parent="C-vyLk0tnHw3VtMMgP7b-24" vertex="1">
          <mxGeometry width="30" height="30" as="geometry">
            <mxRectangle width="30" height="30" as="alternateBounds" />
          </mxGeometry>
        </mxCell>
        <mxCell id="C-vyLk0tnHw3VtMMgP7b-26" value="flight_number" style="shape=partialRectangle;overflow=hidden;connectable=0;fillColor=none;top=0;left=0;bottom=0;right=0;align=left;spacingLeft=6;fontStyle=5;" parent="C-vyLk0tnHw3VtMMgP7b-24" vertex="1">
          <mxGeometry x="30" width="230.76923076923077" height="30" as="geometry">
            <mxRectangle width="230.76923076923077" height="30" as="alternateBounds" />
          </mxGeometry>
        </mxCell>
        <mxCell id="B3PYywNZ0nm8Ggp-N_nq-2" value="" style="shape=partialRectangle;collapsible=0;dropTarget=0;pointerEvents=0;fillColor=none;points=[[0,0.5],[1,0.5]];portConstraint=eastwest;top=0;left=0;right=0;bottom=0;" parent="C-vyLk0tnHw3VtMMgP7b-23" vertex="1">
          <mxGeometry y="60" width="260.7692307692308" height="30" as="geometry" />
        </mxCell>
        <mxCell id="B3PYywNZ0nm8Ggp-N_nq-3" value="FK" style="shape=partialRectangle;overflow=hidden;connectable=0;fillColor=none;top=0;left=0;bottom=0;right=0;" parent="B3PYywNZ0nm8Ggp-N_nq-2" vertex="1">
          <mxGeometry width="30" height="30" as="geometry">
            <mxRectangle width="30" height="30" as="alternateBounds" />
          </mxGeometry>
        </mxCell>
        <mxCell id="B3PYywNZ0nm8Ggp-N_nq-4" value="aircraft_registration" style="shape=partialRectangle;overflow=hidden;connectable=0;fillColor=none;top=0;left=0;bottom=0;right=0;align=left;spacingLeft=6;" parent="B3PYywNZ0nm8Ggp-N_nq-2" vertex="1">
          <mxGeometry x="30" width="230.76923076923077" height="30" as="geometry">
            <mxRectangle width="230.76923076923077" height="30" as="alternateBounds" />
          </mxGeometry>
        </mxCell>
        <mxCell id="B3PYywNZ0nm8Ggp-N_nq-12" value="" style="shape=partialRectangle;collapsible=0;dropTarget=0;pointerEvents=0;fillColor=none;points=[[0,0.5],[1,0.5]];portConstraint=eastwest;top=0;left=0;right=0;bottom=0;" parent="C-vyLk0tnHw3VtMMgP7b-23" vertex="1">
          <mxGeometry y="90" width="260.7692307692308" height="30" as="geometry" />
        </mxCell>
        <mxCell id="B3PYywNZ0nm8Ggp-N_nq-13" value="FK" style="shape=partialRectangle;overflow=hidden;connectable=0;fillColor=none;top=0;left=0;bottom=0;right=0;" parent="B3PYywNZ0nm8Ggp-N_nq-12" vertex="1">
          <mxGeometry width="30" height="30" as="geometry">
            <mxRectangle width="30" height="30" as="alternateBounds" />
          </mxGeometry>
        </mxCell>
        <mxCell id="B3PYywNZ0nm8Ggp-N_nq-14" value="departure_airport" style="shape=partialRectangle;overflow=hidden;connectable=0;fillColor=none;top=0;left=0;bottom=0;right=0;align=left;spacingLeft=6;" parent="B3PYywNZ0nm8Ggp-N_nq-12" vertex="1">
          <mxGeometry x="30" width="230.76923076923077" height="30" as="geometry">
            <mxRectangle width="230.76923076923077" height="30" as="alternateBounds" />
          </mxGeometry>
        </mxCell>
        <mxCell id="B3PYywNZ0nm8Ggp-N_nq-28" value="" style="shape=partialRectangle;collapsible=0;dropTarget=0;pointerEvents=0;fillColor=none;points=[[0,0.5],[1,0.5]];portConstraint=eastwest;top=0;left=0;right=0;bottom=0;" parent="C-vyLk0tnHw3VtMMgP7b-23" vertex="1">
          <mxGeometry y="120" width="260.7692307692308" height="30" as="geometry" />
        </mxCell>
        <mxCell id="B3PYywNZ0nm8Ggp-N_nq-29" value="FK" style="shape=partialRectangle;overflow=hidden;connectable=0;fillColor=none;top=0;left=0;bottom=0;right=0;" parent="B3PYywNZ0nm8Ggp-N_nq-28" vertex="1">
          <mxGeometry width="30" height="30" as="geometry">
            <mxRectangle width="30" height="30" as="alternateBounds" />
          </mxGeometry>
        </mxCell>
        <mxCell id="B3PYywNZ0nm8Ggp-N_nq-30" value="arrival_airport" style="shape=partialRectangle;overflow=hidden;connectable=0;fillColor=none;top=0;left=0;bottom=0;right=0;align=left;spacingLeft=6;" parent="B3PYywNZ0nm8Ggp-N_nq-28" vertex="1">
          <mxGeometry x="30" width="230.76923076923077" height="30" as="geometry">
            <mxRectangle width="230.76923076923077" height="30" as="alternateBounds" />
          </mxGeometry>
        </mxCell>
        <mxCell id="B3PYywNZ0nm8Ggp-N_nq-31" value="" style="shape=partialRectangle;collapsible=0;dropTarget=0;pointerEvents=0;fillColor=none;points=[[0,0.5],[1,0.5]];portConstraint=eastwest;top=0;left=0;right=0;bottom=0;" parent="C-vyLk0tnHw3VtMMgP7b-23" vertex="1">
          <mxGeometry y="150" width="260.7692307692308" height="30" as="geometry" />
        </mxCell>
        <mxCell id="B3PYywNZ0nm8Ggp-N_nq-32" value="" style="shape=partialRectangle;overflow=hidden;connectable=0;fillColor=none;top=0;left=0;bottom=0;right=0;" parent="B3PYywNZ0nm8Ggp-N_nq-31" vertex="1">
          <mxGeometry width="30" height="30" as="geometry">
            <mxRectangle width="30" height="30" as="alternateBounds" />
          </mxGeometry>
        </mxCell>
        <mxCell id="B3PYywNZ0nm8Ggp-N_nq-33" value="scheduled_takeoff_time" style="shape=partialRectangle;overflow=hidden;connectable=0;fillColor=none;top=0;left=0;bottom=0;right=0;align=left;spacingLeft=6;" parent="B3PYywNZ0nm8Ggp-N_nq-31" vertex="1">
          <mxGeometry x="30" width="230.76923076923077" height="30" as="geometry">
            <mxRectangle width="230.76923076923077" height="30" as="alternateBounds" />
          </mxGeometry>
        </mxCell>
        <mxCell id="B3PYywNZ0nm8Ggp-N_nq-34" value="" style="shape=partialRectangle;collapsible=0;dropTarget=0;pointerEvents=0;fillColor=none;points=[[0,0.5],[1,0.5]];portConstraint=eastwest;top=0;left=0;right=0;bottom=0;" parent="C-vyLk0tnHw3VtMMgP7b-23" vertex="1">
          <mxGeometry y="180" width="260.7692307692308" height="30" as="geometry" />
        </mxCell>
        <mxCell id="B3PYywNZ0nm8Ggp-N_nq-35" value="" style="shape=partialRectangle;overflow=hidden;connectable=0;fillColor=none;top=0;left=0;bottom=0;right=0;" parent="B3PYywNZ0nm8Ggp-N_nq-34" vertex="1">
          <mxGeometry width="30" height="30" as="geometry">
            <mxRectangle width="30" height="30" as="alternateBounds" />
          </mxGeometry>
        </mxCell>
        <mxCell id="B3PYywNZ0nm8Ggp-N_nq-36" value="scheduled_landing_time" style="shape=partialRectangle;overflow=hidden;connectable=0;fillColor=none;top=0;left=0;bottom=0;right=0;align=left;spacingLeft=6;" parent="B3PYywNZ0nm8Ggp-N_nq-34" vertex="1">
          <mxGeometry x="30" width="230.76923076923077" height="30" as="geometry">
            <mxRectangle width="230.76923076923077" height="30" as="alternateBounds" />
          </mxGeometry>
        </mxCell>
        <mxCell id="B3PYywNZ0nm8Ggp-N_nq-59" value="" style="shape=partialRectangle;collapsible=0;dropTarget=0;pointerEvents=0;fillColor=none;points=[[0,0.5],[1,0.5]];portConstraint=eastwest;top=0;left=0;right=0;bottom=0;" parent="C-vyLk0tnHw3VtMMgP7b-23" vertex="1">
          <mxGeometry y="210" width="260.7692307692308" height="30" as="geometry" />
        </mxCell>
        <mxCell id="B3PYywNZ0nm8Ggp-N_nq-60" value="" style="shape=partialRectangle;overflow=hidden;connectable=0;fillColor=none;top=0;left=0;bottom=0;right=0;" parent="B3PYywNZ0nm8Ggp-N_nq-59" vertex="1">
          <mxGeometry width="30" height="30" as="geometry">
            <mxRectangle width="30" height="30" as="alternateBounds" />
          </mxGeometry>
        </mxCell>
        <mxCell id="B3PYywNZ0nm8Ggp-N_nq-61" value="scheduled_arrival_time" style="shape=partialRectangle;overflow=hidden;connectable=0;fillColor=none;top=0;left=0;bottom=0;right=0;align=left;spacingLeft=6;" parent="B3PYywNZ0nm8Ggp-N_nq-59" vertex="1">
          <mxGeometry x="30" width="230.76923076923077" height="30" as="geometry">
            <mxRectangle width="230.76923076923077" height="30" as="alternateBounds" />
          </mxGeometry>
        </mxCell>
        <mxCell id="B3PYywNZ0nm8Ggp-N_nq-62" value="" style="shape=partialRectangle;collapsible=0;dropTarget=0;pointerEvents=0;fillColor=none;points=[[0,0.5],[1,0.5]];portConstraint=eastwest;top=0;left=0;right=0;bottom=0;" parent="C-vyLk0tnHw3VtMMgP7b-23" vertex="1">
          <mxGeometry y="240" width="260.7692307692308" height="30" as="geometry" />
        </mxCell>
        <mxCell id="B3PYywNZ0nm8Ggp-N_nq-63" value="" style="shape=partialRectangle;overflow=hidden;connectable=0;fillColor=none;top=0;left=0;bottom=0;right=0;" parent="B3PYywNZ0nm8Ggp-N_nq-62" vertex="1">
          <mxGeometry width="30" height="30" as="geometry">
            <mxRectangle width="30" height="30" as="alternateBounds" />
          </mxGeometry>
        </mxCell>
        <mxCell id="B3PYywNZ0nm8Ggp-N_nq-64" value="scheduled_departure_time" style="shape=partialRectangle;overflow=hidden;connectable=0;fillColor=none;top=0;left=0;bottom=0;right=0;align=left;spacingLeft=6;" parent="B3PYywNZ0nm8Ggp-N_nq-62" vertex="1">
          <mxGeometry x="30" width="230.76923076923077" height="30" as="geometry">
            <mxRectangle width="230.76923076923077" height="30" as="alternateBounds" />
          </mxGeometry>
        </mxCell>
        <mxCell id="B3PYywNZ0nm8Ggp-N_nq-113" style="edgeStyle=orthogonalEdgeStyle;rounded=0;orthogonalLoop=1;jettySize=auto;html=1;entryX=0;entryY=0.5;entryDx=0;entryDy=0;" parent="dQKUSXIgywauMoTUCJ7Y-3" source="B3PYywNZ0nm8Ggp-N_nq-2" target="C-vyLk0tnHw3VtMMgP7b-3" edge="1">
          <mxGeometry relative="1" as="geometry" />
        </mxCell>
        <mxCell id="B3PYywNZ0nm8Ggp-N_nq-114" style="edgeStyle=orthogonalEdgeStyle;rounded=0;orthogonalLoop=1;jettySize=auto;html=1;entryX=0;entryY=0.5;entryDx=0;entryDy=0;" parent="dQKUSXIgywauMoTUCJ7Y-3" source="B3PYywNZ0nm8Ggp-N_nq-12" target="C-vyLk0tnHw3VtMMgP7b-14" edge="1">
          <mxGeometry relative="1" as="geometry" />
        </mxCell>
        <mxCell id="dQKUSXIgywauMoTUCJ7Y-2" style="edgeStyle=orthogonalEdgeStyle;rounded=0;orthogonalLoop=1;jettySize=auto;html=1;entryX=0;entryY=0.5;entryDx=0;entryDy=0;" edge="1" parent="dQKUSXIgywauMoTUCJ7Y-3" source="B3PYywNZ0nm8Ggp-N_nq-28" target="C-vyLk0tnHw3VtMMgP7b-14">
          <mxGeometry relative="1" as="geometry">
            <Array as="points">
              <mxPoint x="302.4923076923077" y="385" />
              <mxPoint x="302.4923076923077" y="534.9999999999999" />
            </Array>
          </mxGeometry>
        </mxCell>
      </root>
    </mxGraphModel>
  </diagram>
</mxfile>
